<svg width="160" height="160" viewBox="0 0 160 160" fill="none" xmlns="http://www.w3.org/2000/svg">
<rect width="160" height="160" rx="40" fill="#47755C"/>
<path fill-rule="evenodd" clip-rule="evenodd" d="M62.58 65.4185C62.58 49.1487 75.6849 35.9633 91.8554 35.9633H94.7612C110.932 35.9633 124.037 49.1487 124.037 65.4185V68.1082C124.037 84.378 110.932 97.5635 94.7612 97.5635H75.2781V104.259C75.2781 115.178 66.4446 124.037 55.5916 124.037C44.7386 124.037 35.9633 115.193 35.9633 104.317C35.9633 93.4412 44.7241 84.6119 55.548 84.6119H62.58V65.4185ZM91.8554 48.9294H94.7612C103.813 48.9294 111.15 56.3115 111.15 65.4185V68.1082C111.15 77.2152 103.813 84.5973 94.7612 84.5973H75.4815V65.4331C75.4815 56.3261 82.8185 48.944 91.87 48.944M55.548 97.5781H62.3911V104.244C62.3911 107.971 59.3546 111.056 55.5916 111.056C51.8287 111.056 48.8648 108.001 48.8648 104.317C48.8648 100.633 51.8577 97.5781 55.5626 97.5781" fill="white"/>
</svg>
