<svg width="275" height="61" viewBox="0 0 275 61" fill="none" xmlns="http://www.w3.org/2000/svg">
<g clip-path="url(#clip0_5870_44921)">
<path fill-rule="evenodd" clip-rule="evenodd" d="M18.32 20.15C18.32 9.02 27.34 0 38.47 0H40.47C51.6 0 60.62 9.02 60.62 20.15V21.99C60.62 33.12 51.6 42.14 40.47 42.14H27.06V46.72C27.06 54.19 20.98 60.25 13.51 60.25C6.04 60.25 0 54.2 0 46.76C0 39.32 6.03 33.28 13.48 33.28H18.32V20.15ZM38.47 8.87H40.47C46.7 8.87 51.75 13.92 51.75 20.15V21.99C51.75 28.22 46.7 33.27 40.47 33.27H27.2V20.16C27.2 13.93 32.25 8.88 38.48 8.88M13.48 42.15H18.19V46.71C18.19 49.26 16.1 51.37 13.51 51.37C10.92 51.37 8.88 49.28 8.88 46.76C8.88 44.24 10.94 42.15 13.49 42.15" fill="white"/>
<path d="M113.13 6.81H78.7399C75.9099 6.81 73.8599 8.66 73.8599 11.2C73.8599 13.74 75.9099 15.59 78.7399 15.59H107.74C108.54 15.59 109.03 15.7 109.28 15.93C109.53 16.17 109.64 16.64 109.63 17.5V36.36V44.05H119.32V12.67C119.32 10.58 118.85 9.05 117.92 8.11C116.95 7.25 115.33 6.81 113.12 6.81" fill="white"/>
<path d="M165.54 5.83002C163.91 5.83002 162.68 6.26002 161.9 7.11002C161.09 7.99002 160.69 9.08002 160.69 10.45V44.05H170.38V10.45C170.38 9.11002 170 8.01002 169.21 7.10002C168.38 6.25002 167.14 5.83002 165.53 5.83002" fill="white"/>
<path d="M160.69 45.96H136.81C135.53 45.96 135.13 45.76 135.01 45.65C134.93 45.58 134.68 45.24 134.68 43.95V41.91C134.68 38.71 132.2 37.04 129.74 37.04C127.45 37.04 124.98 38.56 124.98 41.91V47.98C124.99 50.43 125.49 52.08 126.49 53.03C127.48 53.97 129.21 54.43 131.75 54.43H170.38V45.96H160.69Z" fill="white"/>
<path d="M209.09 45.96H188.15C186.87 45.96 186.47 45.76 186.35 45.65C186.27 45.58 186.02 45.24 186.02 43.95V41.91C186.02 38.71 183.54 37.04 181.08 37.04C178.79 37.04 176.32 38.56 176.32 41.91V47.98C176.33 50.43 176.83 52.08 177.83 53.03C178.82 53.97 180.55 54.43 183.09 54.43H218.77V45.96H209.08H209.09Z" fill="white"/>
<path d="M248.28 6.81H232.59C231.51 6.81 230.61 6.91 229.85 7.01C229.85 7.01 229.82 7.01 229.81 7.01C228.87 7.26 228.27 7.55 227.85 7.94C227.33 8.38 226.96 8.98 226.72 9.78C226.5 10.55 226.39 11.52 226.39 12.65V48.55C226.39 49.68 226.5 50.65 226.72 51.43C226.96 52.23 227.33 52.83 227.83 53.25C228.26 53.65 228.87 53.95 229.83 54.2C229.83 54.2 229.86 54.2 229.87 54.2C230.61 54.3 231.51 54.4 232.59 54.4H256.69V45.69H238.11C237.53 45.69 237.14 45.69 236.91 45.61H236.86C236.86 45.61 236.82 45.59 236.8 45.59H236.75C236.54 45.59 236.45 45.55 236.44 45.54L236.4 45.46C236.4 45.46 236.36 45.4 236.32 45.39L236.24 45.35C236.24 45.35 236.18 45.23 236.18 45.06V45.01C236.18 45.01 236.18 44.97 236.18 44.96L236.16 44.92C236.08 44.69 236.08 43.3 236.08 42.75V17.17C236.08 16.7 236.08 16.3 236.17 16.01V15.97C236.17 15.97 236.19 15.94 236.19 15.92V15.88C236.19 15.7 236.25 15.57 236.36 15.47C236.36 15.47 236.45 15.4 236.83 15.3C236.95 15.3 237.09 15.3 237.25 15.28C237.48 15.27 237.77 15.25 238.12 15.25H256.7V6.81H248.3H248.28Z" fill="white"/>
<path d="M109.64 45.96H76.4002C74.8702 45.96 73.5902 46.4 72.7002 47.22C71.9102 47.96 71.4702 48.96 71.4702 50.06C71.4702 52.18 73.2002 54.43 76.4002 54.43H119.34V45.96H109.65H109.64Z" fill="white"/>
<path d="M128.76 14.93H147.78C147.86 14.93 147.88 14.95 147.88 14.97V17.05C147.88 17.05 147.88 17.08 147.88 17.09C147.86 17.09 147.83 17.09 147.78 17.09H131.78C129.4 17.09 127.66 17.6 126.6 18.6C125.53 19.62 125 21.25 125 23.59V29.21C125 31.57 125.52 33.19 126.59 34.14C127.61 35.16 129.31 35.66 131.78 35.66H157.09V27.54H134.21C134.21 27.54 134.2 27.51 134.19 27.5V25.43C134.19 25.43 134.25 25.43 134.29 25.43H150.29C150.41 25.43 150.51 25.43 150.63 25.43H157.07V13.28C157.07 9.97002 156.61 9.38002 155.58 8.35002L155.51 8.28002C154.42 7.30002 152.71 6.83002 150.29 6.83002H128.77C125.86 6.83002 124.34 8.89002 124.34 10.93C124.34 12.97 125.73 14.96 128.77 14.96" fill="white"/>
<path d="M202.93 35.66H205.51V27.58H202.53V14.88H202.93C204.98 14.88 206.71 13.17 206.71 11.15V10.49C206.71 8.48999 204.98 6.79999 202.93 6.79999H178.66C176.61 6.79999 174.88 8.50999 174.88 10.52V11.1C174.88 13.14 176.61 14.87 178.66 14.87H179.17V27.57H178.66C176.61 27.57 174.88 29.25 174.88 31.25V31.86C174.88 33.88 176.65 35.65 178.66 35.65H202.93V35.66ZM188.87 14.89H192.84V27.59H188.87V14.89Z" fill="white"/>
<path d="M219.56 17.3H218.78V10.46C218.78 9.12002 218.4 8.02002 217.61 7.10002C216.78 6.26002 215.54 5.83002 213.93 5.83002C212.32 5.83002 211.07 6.26002 210.29 7.11002C209.48 7.99002 209.08 9.08002 209.08 10.45V44.05H218.77V36.36V25.77H219.56C221.73 25.73 223.75 25.19 223.75 21.54C223.75 18.65 222.42 17.31 219.55 17.31" fill="white"/>
<path d="M270.12 24.07H269.52V10.45C269.52 9.11002 269.14 8.01002 268.35 7.10002C267.52 6.25002 266.28 5.83002 264.67 5.83002C263.06 5.83002 261.82 6.26002 261.03 7.11002C260.22 7.99002 259.82 9.08002 259.82 10.45V54.42H269.51V32.53H270.12C272.77 32.48 274.54 31.76 274.54 28.42C274.54 25.54 273.05 24.07 270.11 24.06" fill="white"/>
</g>
<defs>
<clipPath id="clip0_5870_44921">
<rect width="275" height="61" fill="white"/>
</clipPath>
</defs>
</svg>
